<svg width="118" height="22" viewBox="0 0 118 22" fill="none" xmlns="http://www.w3.org/2000/svg">
<path d="M5.38702 0C6.60961 0.788432 10.6204 4.24274 11.9041 5.30966C13.8617 3.37299 15.4715 1.69594 17.7188 0.0124958C19.5202 1.51124 21.5549 3.77141 23.19 5.48476C21.5792 7.37177 19.4913 8.99829 17.4197 10.4633C19.7606 12.402 21.4152 13.8665 23.1698 16.244C22.1106 17.3446 18.9161 20.1998 17.6727 20.997C15.4036 19.2264 13.5772 17.7904 11.4678 15.8494C9.71384 17.8369 7.53273 19.5331 5.4299 21.2197C3.58334 19.4253 1.79428 17.5842 0.0653034 15.6987C1.99566 13.9673 3.88736 12.2017 5.73879 10.403C3.62654 8.97565 1.77965 7.16297 0 5.42C2.07425 3.5295 3.64277 2.16928 5.38702 0Z" fill="#1F2604"/>
<path d="M111.378 0.0159912C113.185 1.97589 115.475 3.85127 117.069 5.66859L111.568 10.5833L117.294 15.9231C115.309 17.6429 113.354 19.3914 111.43 21.1674C109.515 19.4863 107.181 17.5401 105.396 15.7945C103.544 17.5674 101.622 19.4712 99.7258 21.1904C97.7597 19.5174 95.4451 17.6443 93.658 15.8555L93.6593 15.8317L99.5774 10.5923L93.7005 5.42814C95.8492 3.38809 97.5148 1.94075 99.9792 0.150733L105.183 5.3236C107.545 3.75428 109.254 1.77929 111.378 0.0159912Z" fill="#36ABB1"/>
<path d="M52.8246 0.00610352C54.6932 1.91344 56.6846 3.61256 58.7076 5.38544C60.5788 3.59194 62.4919 1.83385 64.4463 0.112663C66.3777 1.914 68.3395 3.68863 70.3313 5.43654C68.3918 7.14902 66.5553 8.80865 64.4681 10.3852C66.2133 12.3109 68.3821 14.0983 70.3797 15.8348L64.6779 21.0031C63.2984 20.435 59.783 16.9169 58.7566 15.7349C56.7668 17.4733 54.7614 19.3835 52.8171 21.1767L46.8315 15.9028C48.8355 14.1508 50.7961 12.3594 52.7122 10.5301C50.7639 8.86441 48.804 7.10547 46.875 5.4136C48.4704 3.7412 51.0274 1.60039 52.8246 0.00610352Z" fill="#F5F6F6"/>
<path d="M29.1464 0.498618C30.9751 1.25482 33.2887 3.70142 34.6994 5.09882C37.0478 3.64131 39.2302 2.06618 41.4717 0.483215C43.5729 2.33131 44.5903 3.51615 46.3647 5.57449C44.7897 7.07789 42.9889 8.62774 41.3499 10.0945C43.3072 12.6158 44.385 13.6136 46.924 15.6772C44.9229 17.6045 43.2221 19.218 41.0664 21.0269C40.7399 20.9093 36.1965 17.1027 34.8982 16.3465C32.6573 17.8287 31.4792 19.477 28.9164 21.0103C27.1521 19.5255 25.3058 17.8676 23.9787 16.0579C25.5121 13.9287 27.0368 12.54 29.0389 10.7761C27.2593 9.02355 25.4621 7.14003 23.711 5.3535C25.4315 3.14938 26.7584 2.09697 29.1464 0.498618Z" fill="#AD2059"/>
<path d="M70.5759 5.64043C72.2431 3.49352 74.0403 1.9544 76.0805 0.120239C78.206 1.96514 79.9395 3.55102 81.9355 5.50627C83.9724 3.59807 85.7527 1.98286 87.9134 0.17281C90.0295 2.04269 91.6152 3.62043 93.5687 5.61517C91.9316 7.22137 89.7206 9.02067 87.9397 10.5493C89.681 12.2531 91.8413 14.1546 93.6593 15.8317L93.658 15.8555C92.0307 17.1745 89.5849 19.7149 88.0303 21.234C86.0454 19.3943 83.8724 17.6211 81.7838 15.8671C79.7206 17.9766 78.3983 19.2761 76.0853 21.1936C74.0825 19.3469 72.4361 17.7059 70.5577 15.7698C72.199 14.0878 74.5545 12.0362 76.3397 10.3879C74.0991 8.85515 72.516 7.4441 70.5759 5.64043Z" fill="#D27A22"/>
</svg>
