<svg width="50" height="87" viewBox="0 0 50 87" fill="none" xmlns="http://www.w3.org/2000/svg">
<path d="M19.2027 0.0351281C22.5457 -0.0419211 26.1598 0.0318117 29.534 0.0317491H49.9855L49.9849 21.2732C46.6764 19.2156 41.9946 18.2833 38.1809 19.1309C38.149 17.3028 38.179 15.3868 38.179 13.5515L45.7175 13.5518V11.6028L38.1784 11.6021L38.1765 3.2849L37.1851 3.28359L36.3483 3.2864V11.6038L28.8086 11.6038L28.8073 13.5541L36.3458 13.5537L36.3476 19.5603C33.0767 20.5525 30.7983 22.1753 28.4969 24.6287C24.6594 17.3358 17.669 14.1799 9.64319 15.612C10.7705 13.6735 12.0938 11.6053 13.2732 9.68255L19.2027 0.0351281Z" fill="white"/>
<path fill-rule="evenodd" clip-rule="evenodd" d="M25.8315 65.5097C27.9052 65.2989 30.8926 65.8066 32.7407 66.7636C32.1737 68.0641 31.6821 69.4836 31.1157 70.8105C26.5848 68.2549 21.8636 69.8916 21.6899 75.4872C21.6409 77.0688 21.7319 78.4125 22.5112 79.8407C23.2017 81.1288 24.3844 82.0825 25.7896 82.4843C27.6898 83.02 29.6766 82.499 31.3521 81.5526C32.7222 75.8451 34.1969 71.0141 37.3608 65.9862L42.9458 65.9843C46.8464 72.048 48.7302 79.8476 49.9995 86.8407L44.5786 86.8417C44.2832 85.1763 44.0378 83.626 43.7192 81.9286L36.2222 81.9237C35.8786 83.5566 35.577 85.1977 35.3179 86.8456C33.8227 86.8287 32.2989 86.842 30.8013 86.8407C27.6129 86.847 24.4301 87.1862 21.5581 85.5595C19.6745 84.4917 18.7294 83.3204 17.6978 81.4804C17.6799 83.0344 17.6954 84.622 17.6948 86.1786C12.9994 86.8421 6.03716 88.0023 2.20557 84.3485C-0.30702 81.9527 0.104637 77.8321 0.104987 74.6269L0.108893 66.0048L4.93799 65.9999V74.9755C4.93597 76.3412 4.80878 78.3079 5.021 79.6015C5.62236 83.2665 10.271 83.3297 12.9653 82.829C13.0591 77.3261 12.968 71.5289 12.9683 66.0028H17.6968L17.6958 71.1581C18.0489 70.3732 18.4956 69.6328 19.0259 68.955C20.8273 66.693 23.0447 65.8233 25.8315 65.5097ZM39.9341 70.1591C38.5885 72.8516 37.8579 75.2568 36.9985 78.0995L40.0015 78.1005H42.9214C42.565 76.8767 40.6439 70.7426 39.9341 70.1591Z" fill="white"/>
<path d="M40.7472 24.5155C44.5151 24.438 47.5708 25.8208 49.9868 28.7115V55.9075C49.7333 56.206 49.4698 56.4971 49.1982 56.7794C47.1095 58.8887 44.2679 60.0816 41.2992 60.0948C38.2892 60.1129 35.3988 58.9181 33.2801 56.7806C31.4168 54.9048 30.2807 52.428 30.0742 49.7917C30.0085 48.9881 30.0423 47.765 30.0454 46.9313L30.0485 38.8658C30.0479 37.79 29.979 35.8878 30.0635 34.8762C30.1368 33.9749 30.3139 33.085 30.5912 32.2242C31.5588 29.2334 33.5849 27.0558 36.3476 25.6281V48.1957H38.1765V33.094C38.1759 30.4382 38.1208 27.55 38.1884 24.9162C38.9715 24.7009 39.9454 24.5707 40.7472 24.5155Z" fill="white"/>
<path d="M0.0700258 42.5594C0.69731 43.1459 1.25913 43.9132 2.06091 44.6412C4.70443 47.0327 8.04051 48.5205 11.5861 48.8904C16.392 49.3761 20.6375 47.9535 24.3484 44.9059L24.3478 47.3326C24.3484 48.5637 24.3321 49.6083 24.4736 50.8408C24.9105 54.6588 26.6461 58.2102 29.3907 60.8997C30.1819 61.6865 30.7959 62.1559 31.6784 62.8112C28.2347 62.8838 24.5356 62.8156 21.0758 62.8156L0.0422986 62.8137L0.0419242 49.3849L0.0359761 44.9798C0.0349746 44.3038 0.00155157 43.1859 0.0700258 42.5594Z" fill="white"/>
<path fill-rule="evenodd" clip-rule="evenodd" d="M12.2019 20.954C15.247 20.7075 18.0615 21.4711 20.4471 23.4237C22.7732 25.3243 24.2369 28.0816 24.5086 31.0731C24.7845 34.054 23.8562 37.0212 21.9305 39.3133C19.81 41.8438 17.1138 43.0224 13.8836 43.2948C16.5678 41.0486 18.0833 38.0914 18.9568 34.7587C17.6014 35.7345 16.6574 35.3812 15.6902 34.1551C15.3684 34.6779 14.8278 35.7236 14.1971 35.828C13.4492 35.5657 13.9554 33.8055 14.0809 33.1756C13.948 33.1849 13.8147 33.1896 13.6814 33.1913C11.6201 33.2024 10.896 30.9358 12.285 29.785C12.7079 29.4346 13.2601 29.2797 13.8035 29.3592C14.3049 29.4302 14.7577 29.6983 15.0603 30.1044C15.6059 30.8358 15.4395 31.2801 15.3123 32.1395C15.4393 32.3048 15.6352 32.3529 15.8367 32.4344C16.3353 31.7817 16.4839 31.6491 17.284 31.4266C18.2571 31.4154 18.6105 31.7346 19.2762 32.3553C19.3314 31.9314 19.3939 31.5153 19.4588 31.0965C19.5449 30.5409 19.9633 29.432 19.7605 28.9286C19.5225 28.8061 17.8158 29.3132 16.9158 28.8417C15.6906 28.1996 15.8611 26.8678 14.9685 26.5653C14.145 26.6255 13.66 28.11 13.0252 28.5917C12.2964 29.1446 11.3581 29.5386 10.6101 30.0575C9.09951 31.1056 7.78462 32.4643 6.55644 33.8153C9.45566 35.5252 8.66806 37.3466 7.48027 39.9745C7.31281 40.3451 7.05696 41.0773 6.63163 41.0868L6.533 40.9862C6.48178 40.5332 7.23994 39.4875 7.44999 39.0253C8.34317 37.0593 8.44061 35.3039 6.17851 34.2997C5.24405 35.2151 4.39415 36.772 3.75859 37.9266C2.9476 36.4746 2.43154 35.1429 2.23222 33.4735C1.86507 30.5063 2.69722 27.5146 4.54472 25.1639C6.4857 22.7076 9.11819 21.3278 12.2019 20.954ZM14.6355 33.1463C14.4691 33.8802 14.2702 34.6582 14.2215 35.4061C14.3638 35.2453 14.574 35.022 14.6932 34.8514C14.9614 34.3818 15.2218 33.9331 15.449 33.4403C15.1501 33.2946 14.9746 33.1975 14.6355 33.1463ZM18.826 33.0223C18.6333 32.3198 17.9099 31.9038 17.2059 32.0907C16.4939 32.2798 16.0717 33.013 16.2664 33.7235C16.4612 34.434 17.1981 34.8496 17.907 34.6493C18.6079 34.4511 19.0183 33.7248 18.826 33.0223ZM13.2937 29.9657C12.8812 30.037 12.5268 30.2992 12.3377 30.6727C12.109 31.1247 12.1584 31.6676 12.4646 32.0712C12.7708 32.4747 13.2803 32.6687 13.7771 32.5702C14.1881 32.4887 14.536 32.2172 14.7156 31.8387C14.9276 31.3918 14.8732 30.8636 14.574 30.4696C14.2748 30.0757 13.7811 29.8814 13.2937 29.9657Z" fill="white"/>
<path d="M0.0499827 0.0314941L13.3861 0.0330585C12.5125 1.52966 11.4533 3.15371 10.5288 4.64124L5.20815 13.1911C3.5863 15.8557 1.74237 18.8924 0.0418456 21.4858C0.0410945 14.4 -0.05711 7.09611 0.0499827 0.0314941Z" fill="white"/>
</svg>
